<?xml version="1.0" encoding="UTF-8"?>
<svg id="Layer_2" data-name="Layer 2" xmlns="http://www.w3.org/2000/svg" viewBox="0 0 1215.21 1060.28" width="1215.21" height="1060.28" fill="black">
  <path d="M1215.21,595.96h-440.64c-1.66,0-3.45,.27-4.95-.25-1.03-.36-2.39-1.88-2.37-2.85,.44-19.12,1.27-38.23,1.6-57.35,.29-17.19,.08-34.38,.09-51.58,.02-31.49,.04-62.97,.05-94.46,0-23.97,1.56-48.07-.47-71.86-1.72-20.15-1.54-40.16-1.31-60.22,.61-52.47,1.85-104.94,2.56-157.42,.08-6.03-1.64-12.08-2.42-18.14-.25-1.96-.86-4.28-.12-5.88,4.56-9.9,2.32-20.32,2.57-30.5,.36-14.95,.09-29.91,.09-45.45h5.74c140.65,0,281.3,0,421.94,.03,2.81,0,5.62,.74,8.42,.65,4.7-.15,5.64,2.25,5.83,6.43,.79,16.78,2.77,33.54,2.75,50.31-.03,32.43-1.26,64.87-1.74,97.3-.51,34.15-.82,68.3-.97,102.45-.03,6.14,2.16,12.38,1.6,18.42-3.66,39.73-3,79.54-2.59,119.32,.36,34.98,2.25,69.94,2.54,104.91,.23,27.64-1,55.28-1.42,82.93-.04,2.49,1.09,5.01,1.71,7.51,.41,1.67,.88,3.32,1.51,5.69h0Zm-85.98-515.92c-1.29-.33-1.76-.55-2.23-.56-27.31-.05-54.63-.13-81.94,.05-1.53,.01-3.7,1.91-4.45,3.47-4.82,10-9.27,20.18-13.96,30.25-22.02,47.35-40.77,96.23-67.23,141.5-8.41,14.39-14.07,29.87-13.82,47.16,.4,27.9-.02,55.81,.18,83.71,.27,37.81,.77,75.62,1.24,113.43,.06,5.24,.5,10.48,.76,15.56,1.23,.22,1.71,.39,2.19,.39,24.31-.3,48.62-.66,72.94-.87,3.69-.03,3.87-2.07,3.92-4.83,.57-32.63,1.59-65.26,1.71-97.89,.15-38.8-.49-77.61-.67-116.41-.01-2.36,.56-4.95,1.63-7.05,10.31-20.27,21.31-40.22,31.11-60.73,22.66-47.41,44.77-95.09,67.08-142.67,.61-1.29,.93-2.72,1.53-4.49v-.02Zm-280.38,.17c25.05,61.09,51.41,120.55,80.97,179.15,.76-1.08,1.07-1.42,1.27-1.82,13.57-26.98,27.06-53.99,40.75-80.91,2.17-4.27,2.72-8.14,1.04-12.68-10.11-27.29-23.3-53.12-37.19-78.6-1.08-1.99-4.02-4.1-6.17-4.19-24.94-.99-49.9-1.62-74.85-2.25-1.56-.04-3.13,.68-5.81,1.31h-.01Z"/>
  <path d="M438.76,26.42c-.79-6.36-1.05-12.79-1.6-19.76H2.4C1.58,16.5,.09,26.41,.03,36.33c-.16,29.14,.29,58.28,.41,87.42,.23,46.8,.34,93.6,.67,140.4,.04,6.08,1.19,12.16,1.55,18.25,.28,4.75,.37,9.55,.08,14.29-.14,2.25-2.03,4.43-2.03,6.64-.05,29.83,.13,59.65,.19,89.48,.09,42.81,.15,85.61,.19,128.42,.03,22.47,.01,44.94-.02,67.41-.01,5.79,.71,6.57,6.65,6.59,21.52,.07,43.05,.11,64.57,.18,32.15,.11,64.3,.3,96.45,.34,79.14,.11,158.27,.15,237.41,.22h31.94l.03-.02c0-6.61-.05-12.41,0-18.2,.18-19.47,.34-38.95,.63-58.43,.17-11.66,1.51-23.34,.9-34.99-.07-1.34-.33-9.4-.38-10.42-.03-.6-.05-5.81-.05-6.48,.07-11.99,.14-23.97,.22-35.96,.3-43.98,.65-87.97,.88-131.95,.22-41.81,.7-83.62,.38-125.43-.38-49.23,4.17-98.52-1.94-147.67ZM161.53,370.14c-.06,22.28-1.58,44.56-1.97,66.84-.37,21.36-.12,42.73-.2,64.1-.01,2.8-.33,5.61-.55,9.05h0c-26.99-.01-53.52,3.88-80.02-.1,0-6.75-.11-13.2,.02-19.64,.62-30.97,1.73-61.93,1.89-92.9,.27-50.3,.05-100.6-.18-150.9-.16-34.63-.66-69.27-1.03-103.9-.21-20.13-.35-40.27-.8-60.39-.09-4.11,1.52-6.2,5.18-6.23,23.27-.17,46.54-.16,69.81-.13,3.42,.01,5.09,1.41,5.26,5.43,4.15,96.23,2.88,192.51,2.59,288.77Zm202.21,38.83c-5.04,25.89-13.75,50.27-32.38,69.92-15.54,16.39-34.96,25.79-56.8,30-25.81,4.97-51.94,4.93-78.08,3.1-.33-.03-.66-.07-.99-.12-12.69-2.08-12.87-2.1-12.8-14.96,.1-19.32,.54-38.65,.65-57.97,.02-4.04,1.69-5.19,5.44-5.07,13.15,.42,26.32,1.28,39.44,.78,11.39-.43,22.77-2.15,34.05-3.94,5.49-.87,9.21-4.9,13.1-9.07,9.3-9.97,10.22-21.86,10.2-34.33-.05-32.47-.02-64.95-.02-97.42l2.26-101.94c.35-22.99-11.67-31.66-28.74-35.86-17.34-4.27-35.03-3.34-52.67-2.63-5.16,.2-10.32,.72-15.46,.59-1.43-.04-3.66-1.62-4.05-2.94-1.12-3.76-2.01-7.74-2.06-11.64-.21-16.83-.1-33.66-.08-50.49,.01-8.62,2.42-10.99,10.79-11.11,16.99-.25,33.98-1.08,50.96-.73,21.37,.44,42.63,2.76,61.51,13.93,9.81,5.8,20,11.86,27.77,19.96,8.35,8.71,14.52,19.66,20.79,30.14,11.67,19.53,11.95,41.57,12.15,63.35,.43,45.64,.29,91.29,.48,136.93,.09,23.99-.87,47.93-5.46,71.52Z"/>
  <path d="M718.92,6.08c-49.41-.02-98.83-.02-148.25-.02-26.67,.01-53.33,.14-79.99-.06-4.7-.04-6,1.41-5.95,5.98,.22,21.16,.15,42.33,.1,63.49,0,2.44,.04,5.16-.94,7.29-2.98,6.43-2.43,12.89-1.22,19.5,.83,4.52,2.18,9.06,2.18,13.6,.1,70.66,0,141.31-.02,211.97-.02,60.66,.08,121.32-.06,181.98-.06,25.32-.65,50.63-.89,75.95-.03,3.18,.65,6.37,1,9.57h237s0-589.12,0-589.12c-.97-.04-1.97-.13-2.96-.13Zm-74.16,510.31h-40.51c-10.82,0-21.65-.18-32.46,.13-4.75,.14-6.06-1.87-6.09-6.15-.27-32.97-.6-65.95-.98-98.92-.39-33.8-1.29-67.61-1.21-101.42,.12-49.09,.82-98.17,1.49-147.26,.18-12.98,1.18-25.94,1.83-38.9,.07-1.3,.34-2.6,.46-3.46l.51-5.79c0-10.37-.13-20.67,.17-30.95,.03-1.25,2.35-3.5,3.62-3.5,24.15-.13,48.29,0,72.44,.1,.12,.01,.25,.21,1.13,1.01-1.33,144.38,1.28,289.45-.4,435.11Z"/>
  <path d="M571.27,936.24c0,33.15,.05,66.3-.02,99.44-.03,12.61-4.73,17.18-17.19,17.21-8.33,.02-16.71,.51-24.97-.2-3.76-.33-8.01-2.3-10.82-4.86-5.75-5.23-5.97-5.76-12.84-2.23-38.73,19.95-77.91,19.1-116.35,.33-34.68-16.94-55.81-45.51-61.18-83.81-7.46-53.2,22.03-101,72.89-119.89,29.14-10.82,58.68-11.65,88.21-.78,2.18,.8,5.49,1.06,7.15-.08,1.18-.81,1.03-4.51,.52-6.7-5.51-23.55-24.54-37.58-49.31-37.12-19.69,.37-37.95,5.84-55.36,14.54-11.57,5.78-16.69,4.47-23.43-6.68-5.16-8.53-10.36-17.04-15.47-25.59-5.35-8.96-3.69-17.53,5.85-22.15,13.98-6.78,28.13-13.76,42.96-18.08,35.6-10.35,71.25-10.53,105.33,6.23,35.99,17.7,57.56,46.76,62.81,86.54,2.18,16.57,1.03,33.59,1.17,50.41,.15,17.83,.03,35.66,.03,53.48h.02Zm-122.97,58.75c28.52,.05,49.71-20.45,49.98-48.36,.26-26.88-20.74-47.45-48.08-48.01-30.15-.61-50.06,20.72-50.59,46.87-.57,28.22,20.71,49.45,48.7,49.49h-.01Z"/>
  <path d="M1074.43,926.92h-62.48c-13.09,0-13.32,.39-13.49,13.28-.11,8.53,.08,16.94,3.52,24.94,14.99,34.83,61.5,40.97,85.32,11.07,5.26-6.61,9.72-13.88,14.29-21.01,5.31-8.28,11.93-10.45,20.26-5.32,11.46,7.06,22.66,14.55,33.76,22.15,5.44,3.73,6.68,11.59,3.48,19.61-7.75,19.44-20.72,34.72-37.84,46.55-18.02,12.45-38.12,18.9-59.88,20.89-31.52,2.88-60.86-3.13-87.22-21.06-26.19-17.81-41.68-42.74-47.37-73.78-.87-4.72-1.14-9.6-1.16-14.4-.09-34.82-.19-69.65-.01-104.47,.16-31.16,11.78-57.59,34.15-79.17,19.97-19.26,44.19-29.48,71.62-32.4,31.91-3.39,61.94,1.96,88.85,20.17,28.62,19.37,45.78,46.5,48.79,80.83,1.99,22.65,.97,45.64,.21,68.43-.47,14.18-12.32,23.49-27.85,23.59-22.33,.14-44.65,.04-66.98,.04v.05h.03Zm-27.11-61.11c12.82,0,25.63,.02,38.45-.02,1.82,0,3.64-.24,5.45-.47,3.74-.5,5.51-2.77,5.53-6.45,.03-3.99-.13-7.99,0-11.98,.84-25.73-19.43-49.3-48.28-49.26-22.45,.03-40.93,11.87-47.21,32.54-2.35,7.75-1.98,16.33-2.75,24.54-.87,9.19,2.16,11.15,11.36,11.11,12.48-.05,24.97,0,37.45,0h0Z"/>
  <path d="M33.6,896.22c0-15.67-.05-31.33,0-47,.15-47.65,21.41-83.38,64.24-103.31,47.44-22.08,94.31-18.43,137.39,12.95,14.48,10.55,25.09,24.66,31.69,41.52,4.18,10.69,2.31,16.6-7.28,22.96-9.14,6.07-18.27,12.16-27.46,18.14-9.95,6.48-16.93,4.48-23.44-5.32-6.05-9.09-12.11-18.5-19.8-26.1-14.01-13.84-31.76-15.35-49.71-9.86-17.64,5.4-28.28,18.24-31.61,36.39-1.28,6.95-1.06,14.23-1.09,21.36-.1,28.99-.02,57.99-.03,86.98,0,22.43,11.91,40.23,31.6,47.12,21.64,7.57,44.02,1.37,57.71-16.41,4.96-6.43,9.26-13.38,13.65-20.23,5.54-8.65,12.46-10.69,21.09-5.28,10.98,6.88,21.76,14.1,32.49,21.36,5.94,4.02,7.48,12.04,4.13,20.32-7.98,19.72-21.1,35.38-38.75,47.01-25.98,17.11-54.73,23-85.57,20.35-26.97-2.32-51.1-11.46-71.41-29.42-23.8-21.04-36.81-47.61-37.76-79.52-.53-17.98-.1-35.99-.1-53.99l.02-.02Z"/>
  <path d="M662.07,739.55c6,0,11.99-.04,17.99,0,11.13,.08,18.08,5.26,21.31,15.87,7.39,24.25,14.73,48.52,22.18,72.76,6.9,22.47,13.92,44.91,20.9,67.36,.34,1.1,.65,2.26,1.22,3.24,2.03,3.48,4.94,3.59,6.69-.07,1.78-3.72,3.03-7.71,4.23-11.66,13.22-43.23,26.35-86.48,39.58-129.71,4.23-13.84,10.37-18.12,24.8-17.94,11.47,.15,22.94,.07,34.4,.29,3.11,.06,6.4,.32,9.28,1.38,6.91,2.55,9.2,8.45,6.68,16.33-12.83,40.03-25.74,80.03-38.56,120.06-16.11,50.29-32.14,100.61-48.24,150.91-2.82,8.8-6.79,16.98-13.86,23.25-15.47,13.73-40.21,10.28-49.64-8.13-6.44-12.57-10.89-26.27-15.24-39.78-26.54-82.34-52.8-164.77-79.14-247.17-2.68-8.38,1.62-15.35,10.48-16.54,4.11-.55,8.3-.47,12.46-.55,4.16-.08,8.33-.02,12.49-.02v.11h0Z"/>
</svg>